{
  "accessors": [
    {
      "bufferView": 2,
      "componentType": 5126,
      "count": 1370,
      "max": [
        0.23553673923015594,
        0.264541357755661,
        0.45071837306022644
      ],
      "min": [
        -0.2556058466434479,
        -0.2534352242946625,
        -0.4597804844379425
      ],
      "type": "VEC3"
    },
    {
      "bufferView": 2,
      "byteOffset": 16440,
      "componentType": 5126,
      "count": 1370,
      "max": [
        0.999806821346283,
        0.9999753832817078,
        0.9996474981307983
      ],
      "min": [
        -0.9993874430656433,
        -0.9995889067649841,
        -0.9993481636047363
      ],
      "type": "VEC3"
    },
    {
      "bufferView": 1,
      "componentType": 5126,
      "count": 1370,
      "max": [
        0.9873390197753906,
        0.9939107894897461
      ],
      "min": [
        0.00298193097114563,
        0.0029819607734680176
      ],
      "type": "VEC2"
    },
    {
      "bufferView": 0,
      "componentType": 5125,
      "count": 5190,
      "type": "SCALAR"
    }
  ],
  "asset": {
    "extras": {
      "author": "klrxyz (https://sketchfab.com/klrxyz)",
      "license": "CC-BY-4.0 (http://creativecommons.org/licenses/by/4.0/)",
      "source": "https://sketchfab.com/3d-models/3d-rendering-of-a-whimsical-young-cartoon-charac-38c3f493f5ae46c7ad607142ab3d39de",
      "title": "3D rendering of a whimsical young cartoon charac"
    },
    "generator": "Sketchfab-16.3.0",
    "version": "2.0"
  },
  "bufferViews": [
    {
      "buffer": 0,
      "byteLength": 20760,
      "name": "floatBufferViews",
      "target": 34963
    },
    {
      "buffer": 0,
      "byteLength": 10960,
      "byteOffset": 20760,
      "byteStride": 8,
      "name": "floatBufferViews",
      "target": 34962
    },
    {
      "buffer": 0,
      "byteLength": 32880,
      "byteOffset": 31720,
      "byteStride": 12,
      "name": "floatBufferViews",
      "target": 34962
    }
  ],
  "buffers": [
    {
      "byteLength": 64600,
      "uri": "scene.bin"
    }
  ],
  "images": [
    {
      "uri": "textures/SimplygonCastMaterial_baseColor.png"
    }
  ],
  "materials": [
    {
      "doubleSided": true,
      "name": "SimplygonCastMaterial",
      "pbrMetallicRoughness": {
        "baseColorTexture": {
          "index": 0
        },
        "metallicFactor": 0.0
      }
    }
  ],
  "meshes": [
    {
      "name": "ProcessedMeshNode_LOD1_SimplygonCastMaterial_0",
      "primitives": [
        {
          "attributes": {
            "NORMAL": 1,
            "POSITION": 0,
            "TEXCOORD_0": 2
          },
          "indices": 3,
          "material": 0,
          "mode": 4
        }
      ]
    }
  ],
  "nodes": [
    {
      "children": [
        1
      ],
      "matrix": [
        1.0,
        0.0,
        0.0,
        0.0,
        0.0,
        2.220446049250313e-16,
        -1.0,
        0.0,
        0.0,
        1.0,
        2.220446049250313e-16,
        0.0,
        0.0,
        0.0,
        0.0,
        1.0
      ],
      "name": "Sketchfab_model"
    },
    {
      "children": [
        2
      ],
      "matrix": [
        0.009999999776482582,
        0.0,
        0.0,
        0.0,
        0.0,
        0.0,
        0.009999999776482582,
        0.0,
        0.0,
        -0.009999999776482582,
        0.0,
        0.0,
        0.0,
        0.0,
        0.0,
        1.0
      ],
      "name": "final.fbx"
    },
    {
      "children": [
        3
      ],
      "name": "RootNode"
    },
    {
      "children": [
        4
      ],
      "matrix": [
        4.3711386728180365e-06,
        1.1102229399218618e-14,
        99.99999237060538,
        0.0,
        99.99999237060528,
        -4.3711386728180365e-06,
        -4.371138678369152e-06,
        0.0,
        4.371139011860592e-06,
        99.99999999999991,
        -1.9984014443252818e-13,
        0.0,
        0.0,
        0.0,
        0.0,
        1.0
      ],
      "name": "ProcessedMeshNode_LOD1"
    },
    {
      "mesh": 0,
      "name": "ProcessedMeshNode_LOD1_SimplygonCastMaterial_0"
    }
  ],
  "samplers": [
    {
      "magFilter": 9729,
      "minFilter": 9987,
      "wrapS": 10497,
      "wrapT": 10497
    }
  ],
  "scene": 0,
  "scenes": [
    {
      "name": "Sketchfab_Scene",
      "nodes": [
        0
      ]
    }
  ],
  "textures": [
    {
      "sampler": 0,
      "source": 0
    }
  ]
}
